<svg xmlns="http://www.w3.org/2000/svg" viewBox="0 0 800 500" width="800" height="500">
  <defs>
    <linearGradient id="skyD" x1="0" y1="0" x2="0" y2="1">
      <stop offset="0%" stop-color="#87CEEB"/>
      <stop offset="50%" stop-color="#B8E0F0"/>
      <stop offset="100%" stop-color="#E8F5E0"/>
    </linearGradient>
    <linearGradient id="hillD" x1="0" y1="0" x2="0" y2="1">
      <stop offset="0%" stop-color="#5C8F4A"/>
      <stop offset="100%" stop-color="#2D5A27"/>
    </linearGradient>
    <linearGradient id="grassD" x1="0" y1="0" x2="0" y2="1">
      <stop offset="0%" stop-color="#6DA85A"/>
      <stop offset="100%" stop-color="#3D7A33"/>
    </linearGradient>
    <linearGradient id="roofGrad" x1="0" y1="0" x2="0" y2="1">
      <stop offset="0%" stop-color="#8B4513"/>
      <stop offset="100%" stop-color="#A0522D"/>
    </linearGradient>
    <linearGradient id="wallGradD" x1="0" y1="0" x2="0" y2="1">
      <stop offset="0%" stop-color="#FAF0DC"/>
      <stop offset="100%" stop-color="#E8DCC8"/>
    </linearGradient>
  </defs>
  <rect width="800" height="500" fill="url(#skyD)"/>
  <path d="M0,280 Q150,220 300,260 Q450,300 600,250 Q720,210 800,260 L800,500 L0,500Z" fill="url(#hillD)"/>
  <rect x="0" y="320" width="800" height="180" fill="url(#grassD)"/>
  <g transform="translate(80, 260)">
    <rect x="-50" y="20" width="100" height="70" fill="url(#wallGradD)"/>
    <polygon points="-55,20 0,-15 55,20" fill="url(#roofGrad)"/>
    <rect x="-12" y="40" width="24" height="50" fill="#5C3A1E" rx="2"/>
    <rect x="15" y="35" width="18" height="18" fill="#87CEEB" rx="1" opacity="0.7"/>
  </g>
  <g transform="translate(240, 270)">
    <rect x="-40" y="15" width="80" height="55" fill="url(#wallGradD)"/>
    <polygon points="-45,15 0,-12 45,15" fill="url(#roofGrad)"/>
    <rect x="-10" y="30" width="20" height="40" fill="#5C3A1E" rx="2"/>
    <rect x="12" y="25" width="14" height="14" fill="#87CEEB" rx="1" opacity="0.7"/>
  </g>
  <g transform="translate(460, 255)">
    <rect x="-55" y="25" width="110" height="75" fill="url(#wallGradD)"/>
    <polygon points="-60,25 0,-15 60,25" fill="url(#roofGrad)"/>
    <rect x="-15" y="45" width="30" height="55" fill="#5C3A1E" rx="2"/>
    <rect x="15" y="38" width="20" height="20" fill="#87CEEB" rx="1" opacity="0.7"/>
    <rect x="25" y="65" width="15" height="15" fill="#87CEEB" rx="1" opacity="0.7"/>
  </g>
  <g transform="translate(660, 265)">
    <rect x="-40" y="18" width="80" height="55" fill="url(#wallGradD)"/>
    <polygon points="-45,18 0,-10 45,18" fill="url(#roofGrad)"/>
    <rect x="-10" y="35" width="20" height="38" fill="#5C3A1E" rx="2"/>
    <rect x="12" y="30" width="14" height="14" fill="#87CEEB" rx="1" opacity="0.7"/>
  </g>
  <g fill="#2D5A27" opacity="0.5">
    <ellipse cx="160" cy="340" rx="25" ry="8"/>
    <ellipse cx="350" cy="335" rx="20" ry="7"/>
    <ellipse cx="580" cy="340" rx="22" ry="7"/>
  </g>
  <g>
    <rect x="75" y="358" width="10" height="14" fill="#5C3A1E" rx="1"/>
    <rect x="235" y="353" width="10" height="14" fill="#5C3A1E" rx="1"/>
    <rect x="455" y="355" width="10" height="14" fill="#5C3A1E" rx="1"/>
    <rect x="655" y="358" width="10" height="14" fill="#5C3A1E" rx="1"/>
  </g>
  <path d="M50,440 Q100,430 150,440 Q200,450 250,440 Q300,430 350,440 Q400,450 450,440 Q500,430 550,440 Q600,450 650,440 Q700,430 750,440" stroke="#5C3A1E" stroke-width="2" fill="none" opacity="0.5" stroke-dasharray="8,4"/>
  <circle cx="680" cy="60" r="35" fill="#FFD700" opacity="0.5"/>
  <circle cx="680" cy="60" r="22" fill="#FFD700"/>
  <ellipse cx="150" cy="60" rx="50" ry="10" fill="#fff" opacity="0.25"/>
  <ellipse cx="400" cy="50" rx="60" ry="8" fill="#fff" opacity="0.2"/>
</svg>